<svg xmlns="http://www.w3.org/2000/svg" viewBox="0 0 900 650" role="img" aria-label="Beer and wine">
  <defs><linearGradient id="bg" x1="0" x2="1" y1="0" y2="1"><stop offset="0" stop-color="#081426"/><stop offset=".55" stop-color="#123052"/><stop offset="1" stop-color="#e9665b"/></linearGradient><filter id="shadow"><feDropShadow dx="0" dy="18" stdDeviation="18" flood-color="#081426" flood-opacity=".3"/></filter></defs>
  <rect width="900" height="650" fill="url(#bg)"/>
  <g filter="url(#shadow)">
    <path d="M318 172h128c0 112-28 166-64 184v106h72v38H310v-38h72V356c-36-18-64-72-64-184z" fill="#ffffff" opacity=".95"/>
    <path d="M346 236h72c-4 64-18 92-36 106-18-14-32-42-36-106z" fill="#e9665b"/>
    <rect x="524" y="190" width="112" height="292" rx="28" fill="#ffffff" opacity=".95"/>
    <rect x="548" y="260" width="64" height="166" rx="18" fill="#d49a2a"/>
    <path d="M636 276h48c30 0 48 20 48 58s-22 62-66 62h-30" fill="none" stroke="#ffffff" stroke-width="24" stroke-linecap="round"/>
  </g>
  <text x="52" y="92" font-family="Inter,Arial,sans-serif" font-size="38" font-weight="800" fill="#fff6df">Beer &amp; Wine</text>
</svg>
